<?xml version="1.0" encoding="utf-8"?>
<!-- Generator: Adobe Illustrator 27.5.0, SVG Export Plug-In . SVG Version: 6.00 Build 0)  -->
<svg version="1.1" xmlns="http://www.w3.org/2000/svg" xmlns:xlink="http://www.w3.org/1999/xlink" x="0px" y="0px"
	 viewBox="0 0 750 500" style="enable-background:new 0 0 750 500;" xml:space="preserve">
<g id="Background_Complete">
	<g>
		<g>
			<g>
				<g>
					<path style="fill:#EBEBEB;" d="M159.652,449.98c27.849-18.589,34.648-53.759,34.053-85.473
						c-0.1-5.296,0.575-10.865-1.903-15.545c-2.479-4.681-8.379-7.942-13.214-5.784c-4.009,1.789-5.817,6.335-8.103,10.082
						c-3.041,4.985-7.521,9.082-12.757,11.665c-3.442,1.698-7.682,2.703-11.024,0.818c-4.586-2.588-5.033-8.9-4.917-14.165
						c0.215-9.806,0.429-19.613,0.644-29.42c0.115-5.262,0.216-10.634-1.366-15.655c-1.581-5.019-5.171-9.714-10.223-11.192
						c-5.051-1.477-11.37,1.316-12.52,6.45c-0.479,2.138-0.071,4.369-0.253,6.551c-0.182,2.181-1.252,4.584-3.364,5.163
						c-2.137,0.584-4.247-0.941-5.818-2.503c-5.421-5.397-9.049-12.297-12.433-19.157c-3.385-6.859-6.664-13.877-11.567-19.748
						c-4.903-5.87-11.741-10.566-19.369-11.107c-7.63-0.541-15.839,3.99-17.884,11.361c-2.051,7.389,2.219,14.982,6.898,21.059
						c6.94,9.017,15.194,17.021,24.418,23.684c1.663,1.202,3.465,2.503,4.078,4.461c1.102,3.524-2.321,6.961-5.847,8.062
						c-3.996,1.245-8.302,0.774-12.467,1.196c-4.166,0.422-8.699,2.163-10.333,6.017c-2.266,5.349,2.204,11.053,6.631,14.813
						c8.866,7.528,19.032,13.524,29.91,17.642c3.901,1.477,8.008,2.78,11.129,5.547c3.121,2.769,4.956,7.525,2.989,11.203
						c-1.97,3.683-6.894,4.796-10.991,3.982c-4.097-0.812-7.74-3.069-11.633-4.586c-7.286-2.839-16.756-2.481-21.547,3.698
						c-3.149,4.062-3.509,9.78-2.025,14.7c1.483,4.921,4.581,9.186,7.88,13.126c11.533,13.775,26.398,24.948,43.306,31.019
						C126.938,454.015,142.664,455.824,159.652,449.98"/>
				</g>
			</g>
		</g>
		<g>
			<g>
				<g>
					<g>
						<path style="fill:#E0E0E0;" d="M151.589,430.007c-4.482-16.062-10.873-33.267-18.18-51.041
							c-1.844-4.435-3.666-8.818-5.462-13.139c-1.801-4.31-3.586-8.579-5.595-12.651c-3.981-8.161-8.438-15.708-12.896-22.744
							c-4.458-7.039-8.948-13.559-13.191-19.628c-4.256-6.06-8.331-11.635-12.265-16.561c-7.838-9.883-15.098-17.102-20.286-21.861
							c-2.591-2.389-4.66-4.178-6.078-5.375c-0.69-0.575-1.228-1.023-1.619-1.35c-0.368-0.301-0.569-0.439-0.569-0.439
							s0.166,0.18,0.516,0.501c0.379,0.34,0.9,0.809,1.569,1.409c1.381,1.236,3.417,3.06,5.971,5.48
							c5.116,4.824,12.295,12.082,20.056,21.984c3.897,4.935,7.937,10.52,12.166,16.59c4.215,6.081,8.679,12.607,13.111,19.643
							c4.433,7.03,8.863,14.563,12.816,22.692c1.994,4.056,3.764,8.296,5.566,12.616c1.795,4.319,3.614,8.7,5.456,13.134
							c7.302,17.762,13.701,34.926,18.21,50.939"/>
					</g>
				</g>
			</g>
		</g>
		<g>
			<g>
				<g>
					<g>
						<path style="fill:#E0E0E0;" d="M122.154,353.094c0.054,0.01,0.237-0.79,0.521-2.243c0.291-1.452,0.649-3.565,1.056-6.179
							c0.82-5.231,1.713-12.49,2.679-20.498c0.965-8.012,1.983-15.239,2.914-20.438c0.457-2.602,0.854-4.704,1.149-6.151
							c0.286-1.449,0.421-2.258,0.367-2.272c-0.053-0.013-0.288,0.772-0.668,2.203c-0.389,1.43-0.87,3.52-1.399,6.116
							c-1.077,5.188-2.186,12.428-3.152,20.447c-0.946,7.939-1.802,15.123-2.445,20.516c-0.325,2.51-0.597,4.597-0.806,6.209
							C122.179,352.269,122.1,353.085,122.154,353.094z"/>
					</g>
				</g>
			</g>
		</g>
		<g>
			<g>
				<g>
					<g>
						<path style="fill:#E0E0E0;" d="M53.796,339.426c-0.001,0.028,0.242,0.069,0.704,0.125c0.557,0.056,1.224,0.124,2.027,0.204
							c1.759,0.168,4.303,0.407,7.438,0.806c6.27,0.745,14.898,2.089,24.346,3.991c9.449,1.921,17.921,4.028,24.003,5.737
							c3.047,0.833,5.493,1.576,7.187,2.082c0.773,0.227,1.418,0.417,1.954,0.574c0.45,0.123,0.69,0.175,0.7,0.149
							c0.008-0.026-0.215-0.128-0.648-0.301c-0.523-0.195-1.152-0.433-1.909-0.715c-1.665-0.597-4.092-1.424-7.126-2.329
							c-6.055-1.85-14.532-4.05-24.003-5.975c-9.47-1.908-18.137-3.167-24.442-3.771c-3.149-0.327-5.708-0.482-7.477-0.556
							c-0.808-0.022-1.479-0.041-2.039-0.056C54.044,339.388,53.797,339.398,53.796,339.426z"/>
					</g>
				</g>
			</g>
		</g>
		<g>
			<g>
				<g>
					<g>
						<path style="fill:#E0E0E0;" d="M150.847,428.726c0.025,0.012,0.184-0.273,0.465-0.825c0.311-0.634,0.707-1.441,1.197-2.437
							c1.031-2.119,2.449-5.222,4.152-9.077c3.413-7.707,7.798-18.495,12.486-30.462c4.691-11.97,8.989-22.779,12.265-30.535
							c1.624-3.802,2.952-6.911,3.917-9.171c0.434-1.021,0.784-1.848,1.059-2.496c0.235-0.575,0.346-0.883,0.321-0.894
							c-0.025-0.011-0.185,0.273-0.466,0.827c-0.31,0.633-0.706,1.44-1.195,2.436c-1.032,2.119-2.447,5.222-4.15,9.077
							c-3.414,7.707-7.8,18.495-12.489,30.467c-4.689,11.966-8.988,22.774-12.264,30.531c-1.624,3.8-2.952,6.911-3.917,9.171
							c-0.434,1.021-0.784,1.848-1.059,2.498C150.933,428.407,150.822,428.715,150.847,428.726z"/>
					</g>
				</g>
			</g>
		</g>
		<g>
			<g>
				<g>
					<g>
						<path style="fill:#E0E0E0;" d="M60.199,398.389c-0.007,0.025,0.304,0.151,0.903,0.365c0.683,0.232,1.558,0.53,2.638,0.897
							c2.39,0.797,5.686,1.895,9.717,3.238c8.199,2.743,19.48,6.672,31.932,11.043c12.457,4.371,23.775,8.22,32.026,10.829
							c4.126,1.307,7.472,2.332,9.798,2.998c1.1,0.31,1.989,0.561,2.682,0.756c0.617,0.164,0.943,0.237,0.952,0.21
							c0.009-0.026-0.304-0.151-0.905-0.365c-0.682-0.232-1.555-0.53-2.637-0.897c-2.389-0.797-5.684-1.894-9.716-3.237
							c-8.201-2.743-19.482-6.675-31.938-11.046c-12.452-4.37-23.77-8.219-32.02-10.827c-4.126-1.306-7.473-2.332-9.8-2.998
							c-1.099-0.31-1.988-0.56-2.682-0.756C60.534,398.436,60.208,398.363,60.199,398.389z"/>
					</g>
				</g>
			</g>
		</g>
	</g>
	<g>
		<g>
			
				<rect x="588.727" y="245.73" transform="matrix(0.3659 -0.9306 0.9306 0.3659 111.5426 786.5593)" style="fill:#EBEBEB;" width="88.557" height="131.384"/>
		</g>
		<g>
			<g>
				<g>
					<path style="fill:#E0E0E0;" d="M710.345,295.398c0.013,0.039-0.528,0.261-1.57,0.649c-1.154,0.415-2.676,0.961-4.577,1.644
						c-4.116,1.421-9.863,3.406-16.919,5.844c-14.439,4.865-34.204,11.525-56.096,18.901l-0.462,0.156l-0.244-0.424
						c-0.186-0.323-0.388-0.673-0.59-1.024c-11.604-20.292-22.104-38.654-29.782-52.08c-3.713-6.608-6.74-11.994-8.906-15.85
						c-0.984-1.803-1.772-3.246-2.369-4.339c-0.53-0.999-0.791-1.533-0.756-1.554c0.036-0.02,0.367,0.474,0.964,1.434
						c0.646,1.065,1.498,2.471,2.563,4.228c2.247,3.81,5.385,9.132,9.235,15.661c7.755,13.381,18.363,31.682,30.085,51.906
						c0.202,0.351,0.404,0.701,0.589,1.024l-0.705-0.268c21.936-7.245,41.74-13.786,56.208-18.564
						c7.106-2.288,12.894-4.151,17.039-5.486c1.931-0.595,3.476-1.072,4.647-1.433C709.767,295.506,710.332,295.359,710.345,295.398
						z"/>
				</g>
			</g>
		</g>
		<g>
			<g>
				<path style="fill:#E0E0E0;" d="M555.668,329.735c-0.157-0.29,13.48-7.971,30.455-17.156
					c16.981-9.187,30.869-16.397,31.025-16.108c0.157,0.289-13.477,7.97-30.458,17.157
					C569.716,322.812,555.825,330.024,555.668,329.735z"/>
			</g>
		</g>
		<g>
			<g>
				<path style="fill:#E0E0E0;" d="M658.197,311.422c0.316-0.094,4.991,14.693,10.442,33.024c5.453,18.337,9.615,33.273,9.3,33.367
					c-0.316,0.094-4.991-14.69-10.443-33.027C662.045,326.455,657.881,311.516,658.197,311.422z"/>
			</g>
		</g>
	</g>
	<g>
		<g>
			
				<rect x="614.26" y="153.04" transform="matrix(0.9168 -0.3993 0.3993 0.9168 -17.3223 275.8993)" style="fill:#EBEBEB;" width="78.591" height="52.973"/>
		</g>
		<g>
			<g>
				<g>
					<path style="fill:#E0E0E0;" d="M679.491,140.036c0.022,0.011-0.113,0.334-0.389,0.939c-0.313,0.664-0.725,1.538-1.241,2.632
						c-1.14,2.342-2.731,5.613-4.685,9.628c-4.05,8.165-9.593,19.342-15.732,31.722l-0.129,0.261l-0.283-0.076
						c-0.215-0.058-0.449-0.121-0.683-0.184c-13.491-3.675-25.699-7-34.626-9.432c-4.365-1.225-7.924-2.223-10.471-2.937
						c-1.179-0.346-2.123-0.623-2.838-0.833c-0.647-0.198-0.983-0.314-0.977-0.337c0.006-0.024,0.355,0.045,1.014,0.199
						c0.724,0.177,1.679,0.411,2.872,0.704c2.562,0.661,6.14,1.585,10.531,2.718c8.94,2.379,21.168,5.634,34.68,9.23
						c0.234,0.063,0.467,0.126,0.682,0.184l-0.412,0.185c6.214-12.343,11.824-23.486,15.922-31.627
						c2.038-3.973,3.698-7.21,4.887-9.527c0.565-1.068,1.017-1.923,1.359-2.572C679.292,140.327,679.469,140.025,679.491,140.036z"
						/>
				</g>
			</g>
		</g>
		<g>
			<g>
				<path style="fill:#E0E0E0;" d="M628.59,219.984c-0.189-0.056,2.33-9.074,5.625-20.138c3.297-11.068,6.121-19.992,6.31-19.936
					c0.189,0.056-2.33,9.071-5.626,20.14C631.604,211.115,628.778,220.041,628.59,219.984z"/>
			</g>
		</g>
		<g>
			<g>
				<path style="fill:#E0E0E0;" d="M664.211,168.872c0.094-0.173,8.326,4.104,18.385,9.551c10.062,5.45,18.141,10.007,18.047,10.18
					c-0.094,0.173-8.324-4.103-18.387-9.552C672.198,173.603,664.117,169.045,664.211,168.872z"/>
			</g>
		</g>
	</g>
</g>
<g id="Background_Simple" style="display:none;">
	<path style="display:inline;fill:#E0E0E0;" d="M666.817,223.525c-14.921-20.302-39.432-33.696-64.628-33.551
		c-41.472,0.238-74.788,34.016-114.619,45.571c-25.555,7.413-53.787,5.171-77.851-6.183
		C342.933,197.85,319.92,107.337,252.81,76.521c-46.881-21.527-106.44-5.405-140.499,33.341
		c-34.058,38.746-43.198,96.014-28.633,145.502c14.565,49.488,40.101,98.06,84.079,125.026l4.05,3.716
		c92.472,62.963,220.26,69.409,346.914,51.717c37.535-5.243,73.527-21.477,105.525-41.786
		c31.998-20.309,53.412-61.297,59.175-98.755C687.255,270.378,681.739,243.827,666.817,223.525z"/>
</g>
<g id="Floor">
	<g>
		<g>
			<g>
				<path style="fill:#263238;" d="M697.881,450.427c0,0.144-144.57,0.26-322.866,0.26c-178.357,0-322.897-0.117-322.897-0.26
					s144.539-0.26,322.897-0.26C553.311,450.166,697.881,450.283,697.881,450.427z"/>
			</g>
		</g>
	</g>
</g>
<g id="Device">
	<g>
		<g>
			<g>
				<g>
					<g>
						<path style="fill:#263238;" d="M581.773,446.464H168.321c-8.045,0-14.567-6.522-14.567-14.567V168.353
							c0-8.045,6.522-14.567,14.567-14.567h413.453c8.045,0,14.567,6.522,14.567,14.567v263.544
							C596.341,439.942,589.819,446.464,581.773,446.464z"/>
					</g>
				</g>
			</g>
			<g>
				<g>
					<g>
						<path style="fill:#263238;" d="M596.957,450.427H153.043c-9.829,0-17.798-7.968-17.798-17.798v-7.811h479.51v7.811
							C614.755,442.458,606.786,450.427,596.957,450.427z"/>
					</g>
				</g>
			</g>
			<g>
				<g>
					<g>
						<rect x="165.634" y="165.414" style="fill:#455A64;" width="417.589" height="247.163"/>
					</g>
				</g>
			</g>
			<g>
				<g>
					<g>
						<polygon style="fill:#455A64;" points="331.417,424.818 337.367,434.282 421.096,434.282 426.621,424.818 						"/>
					</g>
				</g>
			</g>
		</g>
		<g>
			<g>
				<g>
					<g>
						<g>
							<g>
								<g>
									<path style="fill:#EBEBEB;" d="M572.208,411.786h-394.7c-1.808,0-3.273-1.466-3.273-3.273V177.054
										c0-1.808,1.465-3.273,3.273-3.273h394.701c1.807,0,3.273,1.465,3.273,3.272v231.459
										C575.481,410.32,574.016,411.786,572.208,411.786z"/>
								</g>
							</g>
						</g>
					</g>
					<g>
						<g>
							<g>
								<g>
									<rect x="174.235" y="191.22" style="fill:#EBEBEB;" width="401.246" height="220.566"/>
								</g>
							</g>
						</g>
					</g>
					<g>
						<g>
							<g>
								<g>
									<path style="fill:#455A64;" d="M207.143,182.973c0,1.77-1.435,3.205-3.205,3.205c-1.77,0-3.204-1.435-3.204-3.205
										c0-1.77,1.434-3.204,3.204-3.204C205.708,179.769,207.143,181.203,207.143,182.973z"/>
								</g>
							</g>
						</g>
					</g>
					<g>
						<g>
							<g>
								<g>
									<path style="fill:#455A64;" d="M187.722,182.973c0,1.77-1.434,3.205-3.205,3.205c-1.769,0-3.204-1.435-3.204-3.205
										c0-1.77,1.435-3.204,3.204-3.204C186.287,179.769,187.722,181.203,187.722,182.973z"/>
								</g>
							</g>
						</g>
					</g>
					<g>
						<g>
							<g>
								<g>
									<path style="fill:#455A64;" d="M197.044,182.973c0,1.77-1.434,3.205-3.205,3.205c-1.77,0-3.205-1.435-3.205-3.205
										c0-1.77,1.435-3.204,3.205-3.204C195.61,179.769,197.044,181.203,197.044,182.973z"/>
								</g>
							</g>
						</g>
					</g>
				</g>
			</g>
		</g>
		<g>
			<g>
				<g>
					<path style="fill:#455A64;" d="M592.538,424.818c0,0.159-98.233,0.287-219.382,0.287c-121.191,0-219.403-0.128-219.403-0.287
						c0-0.158,98.212-0.287,219.403-0.287C494.305,424.531,592.538,424.659,592.538,424.818z"/>
				</g>
			</g>
		</g>
	</g>
</g>
<g id="Paper_Plane">
	<g>
		<g>
			<g>
				<g>
					<path style="fill:#263238;" d="M153.661,428.04c-0.005,0.008-0.119-0.061-0.339-0.204c-0.225-0.15-0.55-0.366-0.978-0.65
						c-0.432-0.293-0.966-0.655-1.601-1.086c-0.634-0.436-1.387-0.92-2.167-1.568c-0.796-0.629-1.686-1.332-2.667-2.107
						c-0.974-0.786-1.954-1.744-3.063-2.729c-2.178-2.012-4.528-4.511-6.969-7.495c-4.827-5.992-9.757-14.225-13.167-24.659
						c-3.343-10.422-5.188-23.001-4.149-36.773c0.529-6.872,1.637-14.054,3.734-21.294c2.063-7.237,4.98-14.595,9.236-21.535
						c1.048-1.743,2.231-3.424,3.458-5.089c1.296-1.607,2.602-3.227,3.919-4.859c1.393-1.567,2.844-3.105,4.28-4.677
						c1.47-1.539,3.061-2.983,4.604-4.496c6.343-5.875,13.48-11.23,21.13-16.171c15.315-9.908,32.63-18.107,50.453-26.647
						c17.767-8.703,36.492-17.051,55.691-25.493c76.893-33.675,147.266-62.364,198.529-82.283
						c25.615-10.004,46.525-17.629,60.986-22.857c7.244-2.577,12.898-4.497,16.723-5.822c1.911-0.65,3.37-1.146,4.359-1.483
						c0.488-0.16,0.858-0.281,1.115-0.365c0.25-0.079,0.379-0.115,0.382-0.106c0.003,0.008-0.119,0.061-0.364,0.157
						c-0.253,0.096-0.618,0.234-1.098,0.415c-0.982,0.359-2.429,0.888-4.325,1.58c-3.815,1.376-9.428,3.4-16.654,6.005
						c-14.416,5.344-35.28,13.072-60.856,23.162c-51.183,20.09-121.502,48.883-198.378,82.55
						c-19.202,8.443-37.9,16.77-55.669,25.459c-17.835,8.529-35.117,16.694-50.374,26.533c-7.621,4.906-14.721,10.218-21.028,16.037
						c-1.533,1.499-3.115,2.928-4.577,4.452c-1.427,1.556-2.87,3.079-4.254,4.63c-1.309,1.616-2.607,3.219-3.895,4.809
						c-1.215,1.64-2.383,3.292-3.423,5.012c-4.219,6.843-7.132,14.13-9.199,21.303c-2.101,7.177-3.223,14.306-3.772,21.128
						c-1.079,13.674,0.702,26.173,3.969,36.541c3.335,10.379,8.178,18.586,12.93,24.584c2.403,2.987,4.719,5.495,6.865,7.523
						c1.093,0.992,2.059,1.959,3.018,2.755c0.967,0.787,1.843,1.501,2.627,2.139c0.768,0.66,1.508,1.156,2.131,1.605
						c0.622,0.447,1.145,0.823,1.569,1.127c0.414,0.303,0.729,0.534,0.947,0.694C153.561,427.949,153.665,428.033,153.661,428.04z"
						/>
				</g>
			</g>
		</g>
		<g>
			<g>
				<g>
					<g>
						<polygon style="fill:#E8505B;" points="540.353,74.661 558.868,90.012 557.159,107.593 572.328,99.159 588.486,110.637 
							648.713,71.96 						"/>
					</g>
				</g>
				<g style="opacity:0.5;">
					<g>
						<polygon points="558.868,90.012 647.08,72 567.85,95.979 557.159,107.593 557.159,107.593 						"/>
					</g>
				</g>
			</g>
			<g style="opacity:0.8;">
				<g>
					<polygon points="567.85,95.979 572.328,99.159 557.159,107.593 					"/>
				</g>
			</g>
		</g>
	</g>
</g>
<g id="Letters">
	<g>
		<g>
			<g>
				
					<rect x="197.088" y="310.232" transform="matrix(0.9955 -0.0944 0.0944 0.9955 -31.2778 24.7087)" style="fill:#FFFFFF;" width="96.633" height="65.134"/>
			</g>
			<g>
				<g>
					<path style="fill:#455A64;" d="M296.58,370.657c0,0-0.066-0.419-0.153-1.2c-0.087-0.816-0.209-1.961-0.367-3.439
						c-0.31-3.041-0.759-7.442-1.331-13.06c-1.115-11.28-2.713-27.435-4.658-47.109l0.391,0.323
						c-26.556,2.544-59.975,5.746-96.184,9.215c-0.096,0.105,0.757-0.923,0.397-0.479l0.002,0.017l0.003,0.034l0.006,0.068
						l0.013,0.135l0.026,0.271l0.051,0.541l0.102,1.081l0.205,2.157c0.136,1.436,0.271,2.867,0.407,4.292
						c0.27,2.852,0.538,5.684,0.804,8.494c0.531,5.62,1.053,11.152,1.565,16.579c1.02,10.853,2,21.287,2.929,31.168l-0.447-0.37
						c28.281-2.6,52.279-4.806,69.251-6.366c8.474-0.757,15.192-1.356,19.835-1.771c2.282-0.195,4.053-0.346,5.295-0.452
						c0.58-0.045,1.031-0.08,1.376-0.106C296.408,370.657,296.571,370.65,296.58,370.657c0.009,0.007-0.137,0.029-0.431,0.065
						c-0.332,0.038-0.767,0.087-1.325,0.15c-1.22,0.128-2.961,0.309-5.204,0.544c-4.617,0.464-11.296,1.135-19.722,1.982
						c-17.028,1.665-41.106,4.02-69.48,6.795l-0.409,0.04l-0.039-0.41c-0.946-9.879-1.945-20.311-2.984-31.162
						c-0.517-5.427-1.044-10.958-1.58-16.578c-0.267-2.81-0.537-5.642-0.808-8.493c-0.135-1.426-0.271-2.857-0.408-4.292
						l-0.205-2.157l-0.103-1.081l-0.051-0.541l-0.026-0.271l-0.013-0.135l-0.007-0.068l-0.003-0.034l-0.001-0.017
						c-0.363,0.43,0.491-0.607,0.411-0.499c36.216-3.402,69.641-6.541,96.201-9.036l0.359-0.034l0.033,0.357
						c1.798,19.782,3.274,36.025,4.304,47.367c0.491,5.591,0.875,9.971,1.141,12.997c0.121,1.452,0.214,2.578,0.28,3.38
						C296.571,370.284,296.58,370.657,296.58,370.657z"/>
				</g>
			</g>
		</g>
		<g>
			<g>
				<path style="fill:#455A64;" d="M290.429,305.814c0.022,0.02-0.235,0.349-0.745,0.959c-0.574,0.668-1.327,1.546-2.267,2.641
					c-2.064,2.344-4.943,5.614-8.483,9.634c-7.298,8.161-17.307,19.354-28.46,31.826l-0.253,0.283l-0.321-0.205
					c-0.812-0.517-1.684-1.073-2.562-1.632c-14.671-9.411-27.947-17.927-37.656-24.155c-4.733-3.087-8.592-5.604-11.356-7.407
					c-1.272-0.852-2.29-1.534-3.063-2.052c-0.695-0.477-1.052-0.741-1.035-0.767c0.017-0.026,0.406,0.186,1.132,0.614
					c0.795,0.482,1.844,1.117,3.154,1.91c2.801,1.744,6.712,4.179,11.509,7.166c9.745,6.171,23.071,14.609,37.797,23.933
					c0.877,0.559,1.75,1.116,2.561,1.633l-0.574,0.078c11.234-12.4,21.315-23.527,28.665-31.641
					c3.627-3.943,6.577-7.149,8.691-9.447c0.99-1.05,1.784-1.89,2.388-2.531C290.106,306.084,290.406,305.794,290.429,305.814z"/>
			</g>
		</g>
	</g>
	<g>
		<g>
			<g>
				
					<rect x="497.519" y="209.338" transform="matrix(0.272 -0.9623 0.9623 0.272 144.037 679.9706)" style="fill:#FFFFFF;" width="47.793" height="70.906"/>
			</g>
			<g>
				<g>
					<path style="fill:#455A64;" d="M549.032,277.429c0,0,0.066-0.304,0.214-0.861c0.157-0.581,0.377-1.397,0.662-2.45
						c0.595-2.162,1.456-5.293,2.555-9.288c2.23-8.013,5.424-19.488,9.314-33.464l0.182,0.325
						c-18.842-5.307-42.553-11.985-68.245-19.22c-0.093,0.046,0.763-0.43,0.399-0.222l-0.003,0.012l-0.007,0.024l-0.014,0.048
						l-0.027,0.096l-0.054,0.192l-0.109,0.384l-0.217,0.767l-0.432,1.53c-0.288,1.018-0.575,2.033-0.861,3.044
						c-0.572,2.023-1.14,4.031-1.704,6.024c-1.128,3.985-2.239,7.908-3.329,11.757c-2.182,7.695-4.281,15.093-6.267,22.099
						l-0.208-0.372c20.037,5.726,37.039,10.585,49.064,14.022c5.998,1.731,10.753,3.104,14.039,4.052
						c1.613,0.472,2.865,0.839,3.742,1.096c0.409,0.123,0.727,0.219,0.969,0.292C548.914,277.383,549.028,277.421,549.032,277.429
						c0.004,0.007-0.101-0.016-0.312-0.07c-0.237-0.062-0.547-0.144-0.946-0.249c-0.869-0.237-2.107-0.574-3.704-1.009
						c-3.281-0.908-8.029-2.221-14.017-3.878c-12.091-3.38-29.187-8.158-49.335-13.789l-0.29-0.081l0.082-0.291
						c1.974-7.009,4.059-14.411,6.228-22.11c1.086-3.85,2.194-7.774,3.318-11.76c0.563-1.993,1.13-4.002,1.701-6.025
						c0.286-1.011,0.573-2.026,0.86-3.045l0.432-1.53l0.217-0.767l0.108-0.384l0.054-0.192l0.027-0.096l0.013-0.048l0.007-0.024
						l0.003-0.012c-0.362,0.198,0.497-0.285,0.414-0.232c25.678,7.283,49.377,14.005,68.209,19.347l0.255,0.072l-0.073,0.253
						c-4.02,14.01-7.32,25.514-9.625,33.546c-1.148,3.955-2.047,7.054-2.669,9.194c-0.303,1.026-0.538,1.82-0.705,2.387
						C549.124,277.171,549.032,277.429,549.032,277.429z"/>
				</g>
			</g>
		</g>
		<g>
			<g>
				<path style="fill:#455A64;" d="M562.031,231.437c0.01,0.02-0.253,0.177-0.764,0.458c-0.57,0.305-1.318,0.705-2.252,1.205
					c-2.034,1.056-4.871,2.529-8.36,4.34c-7.158,3.647-16.975,8.647-27.915,14.22l-0.248,0.126l-0.166-0.225
					c-0.418-0.569-0.867-1.181-1.319-1.796c-7.539-10.331-14.362-19.68-19.351-26.517c-2.419-3.368-4.391-6.114-5.803-8.08
					c-0.644-0.921-1.16-1.657-1.551-2.217c-0.349-0.511-0.523-0.786-0.505-0.799c0.018-0.014,0.228,0.235,0.612,0.721
					c0.416,0.541,0.965,1.253,1.65,2.144c1.454,1.936,3.483,4.64,5.972,7.956c5.029,6.807,11.906,16.116,19.506,26.403
					c0.452,0.615,0.901,1.227,1.319,1.797l-0.413-0.099c10.976-5.502,20.825-10.439,28.007-14.039
					c3.527-1.735,6.396-3.145,8.453-4.156c0.956-0.455,1.722-0.82,2.306-1.098C561.738,231.536,562.021,231.418,562.031,231.437z"/>
			</g>
		</g>
	</g>
</g>
<g id="Plant">
	<g>
		<g>
			<g>
				<g>
					<path style="fill:#E8505B;" d="M202.164,201.176c0,0,4.705-3.81,11.996,7.62c7.291,11.43,10.284,18.14,10.284,18.14
						s1.863,2.362,3.434,0.548c1.571-1.814,3.489-6.715,6.512-6.158c3.135,0.577,4.469,3.884,4.372,8.943
						c-0.098,5.059,0.096,16.151,0.117,17.153c0.021,0.985,0.72,2.37,1.988,1.306c1.268-1.064,8.242-10.525,12.532-6.947
						c4.291,3.578,1.703,17.626,1.45,19.168c-0.253,1.541,0.103,2.155,0.852,2.457c0.75,0.303,2.794-3.098,4.887-5.707
						c2.094-2.609,4.978-5.268,7.281-2.997c2.303,2.271,3.956,12.465-4.194,30.07l-4.31,7.91l-9.041,0.371
						c-19.396-0.385-27.836-6.335-28.869-9.4c-1.034-3.065,2.62-4.494,5.883-5.233c3.263-0.739,7.215-1.087,7.271-1.894
						c0.056-0.807-0.339-1.395-1.836-1.842c-1.497-0.447-15.259-4.274-16.596-9.699c-1.337-5.424,10.222-7.55,11.734-8.224
						c1.512-0.674,0.573-1.909-0.303-2.359c-0.892-0.458-10.779-5.49-15.369-7.618c-4.591-2.128-6.98-4.776-6.125-7.847
						c0.824-2.961,6.069-2.539,8.388-3.157c2.319-0.618,1.011-3.328,1.011-3.328s-4.721-5.629-11.803-17.19
						c-7.082-11.561-1.446-14.159-1.446-14.159"/>
				</g>
			</g>
		</g>
		<g>
			<g>
				<g>
					<g>
						<path style="fill:#263238;" d="M208.711,211.402c0,0,0.041,0.088,0.135,0.25c0.102,0.173,0.242,0.412,0.423,0.719
							c0.385,0.641,0.94,1.564,1.652,2.748c1.437,2.385,3.543,5.82,6.161,10.055c5.233,8.471,12.561,20.112,20.697,32.941
							c8.139,12.833,15.496,24.456,20.775,32.897c2.63,4.215,4.761,7.629,6.242,10.002c0.733,1.171,1.304,2.084,1.7,2.718
							c0.192,0.3,0.341,0.534,0.449,0.703c0.103,0.157,0.162,0.234,0.162,0.234s-0.041-0.087-0.135-0.25
							c-0.102-0.173-0.242-0.411-0.423-0.718c-0.385-0.64-0.94-1.564-1.651-2.748c-1.437-2.385-3.542-5.82-6.16-10.054
							c-5.233-8.471-12.562-20.113-20.7-32.946c-8.136-12.829-15.492-24.45-20.772-32.891c-2.63-4.215-4.761-7.629-6.243-10.003
							c-0.733-1.171-1.304-2.085-1.701-2.718c-0.192-0.3-0.341-0.534-0.449-0.703C208.77,211.479,208.711,211.402,208.711,211.402z"
							/>
					</g>
				</g>
			</g>
		</g>
		<g>
			<g>
				<g>
					<g>
						<path style="fill:#263238;" d="M231.983,228.29c-0.021-0.004-0.081,0.22-0.172,0.629c-0.093,0.408-0.209,1.003-0.346,1.739
							c-0.27,1.473-0.589,3.516-0.898,5.778c-0.295,2.226-0.561,4.238-0.768,5.792c-0.094,0.689-0.175,1.274-0.241,1.754
							c-0.058,0.414-0.081,0.645-0.06,0.649c0.021,0.004,0.082-0.219,0.177-0.628c0.092-0.409,0.208-1.004,0.337-1.742
							c0.255-1.476,0.547-3.523,0.857-5.784c0.311-2.222,0.592-4.232,0.809-5.785c0.098-0.688,0.182-1.274,0.25-1.753
							C231.983,228.525,232.004,228.294,231.983,228.29z"/>
					</g>
				</g>
			</g>
		</g>
		<g>
			<g>
				<g>
					<g>
						<path style="fill:#263238;" d="M228.691,244.87c0.015-0.083-4.168-0.929-9.343-1.889c-5.177-0.96-9.384-1.671-9.4-1.589
							c-0.015,0.083,4.167,0.928,9.344,1.889C224.467,244.242,228.675,244.953,228.691,244.87z"/>
					</g>
				</g>
			</g>
		</g>
		<g>
			<g>
				<g>
					<g>
						<path style="fill:#263238;" d="M242.076,264.011c-0.003-0.021-0.24-0.01-0.665,0.029c-0.49,0.048-1.091,0.107-1.799,0.176
							c-1.519,0.148-3.617,0.345-5.939,0.479c-2.323,0.139-4.43,0.194-5.956,0.222c-0.712,0.014-1.315,0.027-1.807,0.037
							c-0.427,0.012-0.664,0.028-0.664,0.049c-0.001,0.021,0.235,0.045,0.662,0.07c0.427,0.025,1.045,0.049,1.809,0.06
							c1.528,0.027,3.643,0.007,5.973-0.133c2.33-0.134,4.431-0.366,5.947-0.569c0.757-0.105,1.369-0.197,1.79-0.273
							C241.847,264.083,242.079,264.032,242.076,264.011z"/>
					</g>
				</g>
			</g>
		</g>
		<g>
			<g>
				<g>
					<g>
						<path style="fill:#263238;" d="M248.354,249.67c-0.019-0.009-0.128,0.182-0.307,0.534c-0.179,0.352-0.43,0.865-0.734,1.502
							c-0.607,1.274-1.428,3.042-2.316,5.003c-0.889,1.962-1.678,3.744-2.235,5.041c-0.279,0.648-0.499,1.175-0.645,1.542
							c-0.146,0.367-0.218,0.574-0.199,0.583c0.019,0.009,0.127-0.182,0.307-0.534c0.179-0.352,0.43-0.865,0.734-1.502
							c0.607-1.274,1.428-3.042,2.316-5.004c0.889-1.961,1.677-3.743,2.235-5.04c0.279-0.648,0.499-1.175,0.645-1.542
							C248.302,249.886,248.374,249.678,248.354,249.67z"/>
					</g>
				</g>
			</g>
		</g>
		<g>
			<g>
				<g>
					<g>
						<path style="fill:#263238;" d="M262.317,265.066c-0.019-0.009-0.155,0.236-0.385,0.687c-0.25,0.508-0.568,1.152-0.947,1.922
							c-0.787,1.628-1.855,3.887-3.018,6.389c-1.163,2.503-2.201,4.776-2.938,6.428c-0.344,0.786-0.632,1.444-0.859,1.963
							c-0.197,0.466-0.296,0.728-0.277,0.737c0.019,0.009,0.155-0.236,0.385-0.687c0.25-0.508,0.567-1.152,0.947-1.922
							c0.787-1.628,1.856-3.887,3.019-6.39c1.163-2.502,2.2-4.775,2.937-6.427c0.344-0.786,0.632-1.444,0.859-1.963
							C262.237,265.337,262.336,265.075,262.317,265.066z"/>
					</g>
				</g>
			</g>
		</g>
		<g>
			<g>
				<g>
					<g>
						<path style="fill:#263238;" d="M253.974,282.702c-0.002-0.021-0.302-0.014-0.843,0.016c-0.598,0.037-1.367,0.085-2.289,0.142
							c-1.933,0.119-4.602,0.275-7.554,0.366c-2.952,0.095-5.627,0.112-7.563,0.112c-0.924,0.001-1.694,0.003-2.294,0.003
							c-0.542,0.004-0.842,0.016-0.842,0.036c-0.001,0.021,0.298,0.049,0.839,0.082c0.541,0.033,1.325,0.068,2.294,0.094
							c1.938,0.055,4.618,0.072,7.576-0.023c2.957-0.091,5.63-0.281,7.561-0.456c0.965-0.09,1.745-0.171,2.283-0.239
							C253.679,282.77,253.976,282.723,253.974,282.702z"/>
					</g>
				</g>
			</g>
		</g>
	</g>
	<g>
		<g>
			<path style="fill:#E8505B;" d="M551.875,291.377c-3.362-1.545-7.364-1.31-10.793,0.08c-3.429,1.39-6.337,3.844-8.796,6.608
				c-4.759,5.347-7.41,13.149-8.739,20.183c7.89,0.972,15.601-4.087,19.352-6.899C548.827,306.904,556.841,295.271,551.875,291.377"
				/>
		</g>
		<g>
			<path style="fill:#E8505B;" d="M509.277,321.01c3.767-1.701,6.231-5.723,6.518-9.846c0.287-4.123-1.431-8.245-4.201-11.312
				c-1.281-1.418-2.98-2.707-4.889-2.61c-1.784,0.091-3.333,1.434-4.079,3.057c-0.746,1.623-0.806,3.481-0.631,5.259
				C502.593,311.655,504.293,317.446,509.277,321.01"/>
		</g>
		<g>
			<g>
				<path style="fill:#263238;" d="M498.914,340.908c0.045,0.032,0.398-0.371,0.995-1.129c0.597-0.758,1.439-1.872,2.438-3.281
					c1.975-2.817,4.672-6.84,6.485-11.859c1.81-5.028,1.966-10.027,1.205-13.436c-0.364-1.71-0.867-3.041-1.304-3.909
					c-0.433-0.872-0.742-1.314-0.782-1.291c-0.15,0.065,0.966,1.938,1.529,5.305c0.598,3.339,0.359,8.164-1.402,13.063
					c-1.767,4.9-4.35,8.924-6.199,11.811C499.999,339.061,498.816,340.839,498.914,340.908z"/>
			</g>
		</g>
		<g>
			<g>
				<path style="fill:#263238;" d="M544.758,299.551c-0.035-0.042-0.745,0.484-1.997,1.471c-1.254,0.986-3.044,2.444-5.236,4.268
					c-4.385,3.647-10.36,8.785-16.817,14.62c-6.458,5.839-12.172,11.267-16.242,15.262c-2.036,1.997-3.665,3.631-4.773,4.779
					c-1.109,1.147-1.703,1.799-1.665,1.839c0.039,0.04,0.707-0.537,1.883-1.615c1.271-1.18,2.937-2.727,4.947-4.593
					c4.167-3.888,9.937-9.244,16.388-15.077c6.451-5.829,12.36-11.029,16.648-14.784c2.059-1.812,3.765-3.314,5.068-4.46
					C544.151,300.2,544.793,299.593,544.758,299.551z"/>
			</g>
		</g>
		<g>
			<path style="fill:#E8505B;" d="M513.819,331.795c7.216-4.883,16.861-5.962,24.978-2.794c2.067,0.807,4.31,2.288,4.346,4.506
				c0.037,2.222-2.17,3.781-4.234,4.607c-8.586,3.437-19.184,1.012-25.421-5.816"/>
		</g>
		<g>
			<g>
				<path style="fill:#263238;" d="M533.434,333.036c0.021-0.051-0.437-0.276-1.291-0.64c-0.424-0.19-0.952-0.402-1.586-0.582
					c-0.632-0.189-1.342-0.446-2.161-0.598c-1.616-0.397-3.592-0.652-5.795-0.728c-2.202-0.03-4.631,0.148-7.127,0.658
					c-2.49,0.542-4.784,1.361-6.787,2.279c-1.984,0.96-3.688,1.991-5.006,3.008c-0.688,0.469-1.234,0.992-1.735,1.42
					c-0.508,0.422-0.905,0.828-1.216,1.173c-0.634,0.678-0.963,1.068-0.923,1.107c0.111,0.111,1.515-1.384,4.203-3.238
					c1.335-0.939,3.031-1.896,4.985-2.797c1.973-0.859,4.216-1.636,6.644-2.165c2.434-0.497,4.799-0.691,6.951-0.703
					c2.151,0.035,4.089,0.225,5.689,0.545C531.488,332.382,533.377,333.182,533.434,333.036z"/>
			</g>
		</g>
	</g>
</g>
<g id="Newletter">
	<g>
		<g>
			<g>
				<g>
					<g>
						<rect x="254.433" y="114.054" style="fill:#FAFAFA;" width="252.736" height="277.126"/>
					</g>
				</g>
				<g>
					<g>
						<g>
							<path style="fill:#263238;" d="M507.169,391.181c-0.002-1.971-0.092-111.516-0.229-277.126l0.228,0.228
								c-74.11,0.009-160.672,0.02-252.71,0.032h-0.025l0.26-0.26c-0.014,101.973-0.027,197.208-0.039,277.126l-0.222-0.221
								C406.416,391.092,505.295,391.179,507.169,391.181c-1.873,0.002-100.753,0.088-252.736,0.222l-0.222,0l0-0.222
								c-0.011-79.918-0.024-175.153-0.039-277.126v-0.261h0.26h0.025c92.038,0.012,178.6,0.022,252.71,0.032h0.229l0,0.229
								C507.261,279.665,507.17,389.211,507.169,391.181z"/>
						</g>
					</g>
				</g>
			</g>
			<g>
				<g>
					<g>
						<path style="fill:#E8505B;" d="M438.828,365.822h-96.593c-8.011,0-14.505-6.494-14.505-14.505v-2.951
							c0-8.011,6.494-14.505,14.505-14.505h96.593c8.011,0,14.505,6.494,14.505,14.505v2.951
							C453.333,359.328,446.839,365.822,438.828,365.822z"/>
					</g>
				</g>
				<g style="opacity:0.5;">
					<g>
						<path d="M438.828,365.822h-96.593c-8.011,0-14.505-6.494-14.505-14.505v-2.951c0-8.011,6.494-14.505,14.505-14.505h96.593
							c8.011,0,14.505,6.494,14.505,14.505v2.951C453.333,359.328,446.839,365.822,438.828,365.822z"/>
					</g>
				</g>
				<g>
					<g>
						<path style="fill:#E8505B;" d="M428.281,365.822h-96.593c-8.011,0-14.505-6.494-14.505-14.505v-2.951
							c0-8.011,6.494-14.505,14.505-14.505h96.593c8.011,0,14.505,6.494,14.505,14.505v2.951
							C442.786,359.328,436.292,365.822,428.281,365.822z"/>
					</g>
				</g>
				<g>
					<g>
						<path style="fill:#FAFAFA;" d="M351.842,351.911l0.426-0.955c0.53,0.426,1.372,0.729,2.186,0.729
							c1.031,0,1.466-0.369,1.466-0.861c0-1.429-3.936-0.492-3.936-2.951c0-1.069,0.851-1.978,2.667-1.978
							c0.795,0,1.627,0.208,2.205,0.586l-0.388,0.956c-0.596-0.35-1.249-0.521-1.826-0.521c-1.021,0-1.438,0.398-1.438,0.898
							c0,1.41,3.926,0.492,3.926,2.924c0,1.06-0.861,1.968-2.677,1.968C353.422,352.706,352.391,352.385,351.842,351.911z"/>
						<path style="fill:none;" d="M354.453,352.732c-1.032,0-2.064-0.315-2.628-0.802l-0.014-0.012l0.007-0.017l0.439-0.985
							l0.025,0.021c0.546,0.44,1.398,0.723,2.17,0.723c0.916,0,1.441-0.305,1.441-0.836c0-0.599-0.72-0.77-1.553-0.968
							c-1.117-0.267-2.383-0.568-2.383-1.983c0-0.968,0.707-2.003,2.692-2.003c0.825,0,1.654,0.221,2.218,0.591l0.017,0.011
							l-0.008,0.02l-0.399,0.982l-0.025-0.015c-0.566-0.333-1.21-0.517-1.813-0.517c-0.898,0-1.413,0.318-1.413,0.873
							c0,0.59,0.717,0.761,1.548,0.958c1.115,0.265,2.378,0.565,2.378,1.966c0,0.554-0.237,1.051-0.667,1.4
							C356.012,352.527,355.308,352.732,354.453,352.732z M351.872,351.905c0.551,0.465,1.585,0.776,2.581,0.776
							c1.611,0,2.652-0.762,2.652-1.942c0-1.36-1.243-1.656-2.34-1.917c-0.851-0.203-1.586-0.378-1.586-1.007
							c0-0.587,0.533-0.924,1.463-0.924c0.603,0,1.245,0.181,1.814,0.51l0.37-0.91c-0.556-0.357-1.367-0.57-2.174-0.57
							c-1.948,0-2.643,1.008-2.643,1.952c0,1.376,1.246,1.673,2.344,1.935c0.854,0.203,1.591,0.379,1.591,1.017
							c0,0.563-0.543,0.887-1.491,0.887c-0.771,0-1.62-0.28-2.176-0.714L351.872,351.905z"/>
					</g>
					<g>
						<path style="fill:#FAFAFA;" d="M358.297,349.726v-3.736h1.23v3.689c0,1.362,0.615,1.948,1.684,1.948
							c1.069,0,1.675-0.586,1.675-1.948v-3.689h1.211v3.736c0,1.931-1.088,2.98-2.895,2.98
							C359.385,352.706,358.297,351.657,358.297,349.726z"/>
						<path style="fill:none;" d="M361.202,352.732c-1.862,0-2.929-1.096-2.929-3.006v-3.762h1.28v3.715
							c0,1.294,0.542,1.923,1.659,1.923c1.11,0,1.65-0.629,1.65-1.923v-3.715h1.261v3.762
							C364.122,351.636,363.058,352.732,361.202,352.732z M358.322,346.015v3.711c0,1.878,1.05,2.955,2.879,2.955
							c1.824,0,2.87-1.077,2.87-2.955v-3.711h-1.161v3.664c0,1.31-0.572,1.974-1.7,1.974c-1.134,0-1.708-0.664-1.708-1.974v-3.664
							H358.322z"/>
					</g>
					<g>
						<path style="fill:#FAFAFA;" d="M371.708,350.814c0,1.136-0.89,1.798-2.592,1.798h-3.293v-6.622h3.103
							c1.589,0,2.441,0.672,2.441,1.722c0,0.681-0.341,1.183-0.852,1.457C371.225,349.395,371.708,349.953,371.708,350.814z
							 M367.053,346.954v1.826h1.741c0.852,0,1.334-0.303,1.334-0.908c0-0.615-0.482-0.918-1.334-0.918H367.053z M370.468,350.691
							c0-0.662-0.501-0.955-1.428-0.955h-1.987v1.911h1.987C369.967,351.647,370.468,351.354,370.468,350.691z"/>
						<path style="fill:none;" d="M369.116,352.637h-3.317v-6.673h3.128c1.544,0,2.466,0.653,2.466,1.747
							c0,0.635-0.288,1.147-0.815,1.451c0.735,0.257,1.156,0.855,1.156,1.651C371.733,351.99,370.804,352.637,369.116,352.637z
							 M365.848,352.586h3.268c1.656,0,2.567-0.629,2.567-1.772c0-0.792-0.428-1.383-1.175-1.622l-0.056-0.018l0.052-0.028
							c0.541-0.29,0.838-0.8,0.838-1.435c0-1.078-0.881-1.696-2.416-1.696h-3.078V352.586z M369.04,351.672h-2.012v-1.962h2.012
							c0.978,0,1.453,0.321,1.453,0.98C370.493,351.351,370.018,351.672,369.04,351.672z M367.078,351.621h1.962
							c0.944,0,1.403-0.304,1.403-0.931c0-0.626-0.459-0.93-1.403-0.93h-1.962V351.621z M368.794,348.806h-1.766v-1.877h1.766
							c0.889,0,1.359,0.326,1.359,0.943C370.153,348.483,369.683,348.806,368.794,348.806z M367.078,348.755h1.716
							c0.597,0,1.309-0.153,1.309-0.883c0-0.738-0.712-0.893-1.309-0.893h-1.716V348.755z"/>
					</g>
					<g>
						<path style="fill:#FAFAFA;" d="M372.469,351.911l0.426-0.955c0.53,0.426,1.372,0.729,2.186,0.729
							c1.031,0,1.466-0.369,1.466-0.861c0-1.429-3.935-0.492-3.935-2.951c0-1.069,0.851-1.978,2.668-1.978
							c0.795,0,1.627,0.208,2.204,0.586l-0.389,0.956c-0.596-0.35-1.248-0.521-1.825-0.521c-1.022,0-1.438,0.398-1.438,0.898
							c0,1.41,3.926,0.492,3.926,2.924c0,1.06-0.861,1.968-2.677,1.968C374.049,352.706,373.018,352.385,372.469,351.911z"/>
						<path style="fill:none;" d="M375.08,352.732c-1.032,0-2.064-0.315-2.627-0.802l-0.014-0.012l0.007-0.017l0.439-0.985
							l0.025,0.021c0.546,0.44,1.398,0.723,2.17,0.723c0.916,0,1.441-0.305,1.441-0.836c0-0.599-0.719-0.77-1.552-0.968
							c-1.117-0.267-2.383-0.568-2.383-1.983c0-0.968,0.707-2.003,2.692-2.003c0.825,0,1.654,0.221,2.218,0.591l0.018,0.011
							l-0.008,0.02l-0.399,0.982l-0.025-0.015c-0.566-0.333-1.211-0.517-1.813-0.517c-0.898,0-1.413,0.318-1.413,0.873
							c0,0.59,0.717,0.761,1.548,0.958c1.115,0.265,2.379,0.565,2.379,1.966C377.783,351.949,376.721,352.732,375.08,352.732z
							 M372.499,351.905c0.551,0.465,1.584,0.776,2.581,0.776c1.611,0,2.652-0.762,2.652-1.942c0-1.36-1.243-1.656-2.34-1.917
							c-0.851-0.203-1.586-0.378-1.586-1.007c0-0.587,0.533-0.924,1.463-0.924c0.602,0,1.245,0.181,1.813,0.51l0.37-0.91
							c-0.556-0.357-1.366-0.57-2.173-0.57c-1.948,0-2.643,1.008-2.643,1.952c0,1.376,1.246,1.673,2.344,1.935
							c0.854,0.203,1.592,0.379,1.592,1.017c0,0.563-0.544,0.887-1.492,0.887c-0.771,0-1.62-0.28-2.176-0.714L372.499,351.905z"/>
					</g>
					<g>
						<path style="fill:#FAFAFA;" d="M378.508,349.3c0-1.977,1.514-3.405,3.548-3.405c1.079,0,2.006,0.388,2.621,1.107l-0.795,0.748
							c-0.482-0.521-1.078-0.776-1.77-0.776c-1.371,0-2.364,0.965-2.364,2.327s0.993,2.327,2.364,2.327
							c0.691,0,1.287-0.255,1.77-0.785l0.795,0.757c-0.615,0.72-1.542,1.107-2.63,1.107
							C380.021,352.706,378.508,351.278,378.508,349.3z"/>
						<path style="fill:none;" d="M382.046,352.732c-2.065,0-3.564-1.443-3.564-3.432c0-1.987,1.503-3.431,3.573-3.431
							c1.087,0,2.024,0.396,2.64,1.115l0.016,0.018l-0.017,0.017l-0.814,0.765l-0.018-0.019c-0.473-0.51-1.061-0.767-1.751-0.767
							c-1.355,0-2.339,0.968-2.339,2.302c0,1.334,0.983,2.302,2.339,2.302c0.692,0,1.282-0.261,1.751-0.776l0.018-0.02l0.83,0.791
							l-0.016,0.019C384.08,352.335,383.139,352.732,382.046,352.732z M382.055,345.92c-2.041,0-3.522,1.421-3.522,3.38
							c0,1.959,1.478,3.381,3.514,3.381c1.069,0,1.989-0.383,2.596-1.08l-0.76-0.723c-0.476,0.514-1.071,0.775-1.771,0.775
							c-1.385,0-2.39-0.989-2.39-2.353c0-1.363,1.005-2.353,2.39-2.353c0.695,0,1.291,0.258,1.771,0.767l0.76-0.715
							C384.036,346.303,383.118,345.92,382.055,345.92z"/>
					</g>
					<g>
						<path style="fill:#FAFAFA;" d="M390.196,352.612l-1.353-1.939c-0.085,0.01-0.17,0.01-0.255,0.01h-1.495v1.93h-1.23v-6.622
							h2.725c1.74,0,2.819,0.889,2.819,2.355c0,1.003-0.512,1.74-1.41,2.091l1.523,2.176H390.196z M388.53,347.03h-1.438v2.64h1.438
							c1.079,0,1.637-0.492,1.637-1.324C390.167,347.512,389.609,347.03,388.53,347.03z"/>
						<path style="fill:none;" d="M391.568,352.637h-1.385l-0.008-0.011l-1.345-1.928c-0.082,0.009-0.164,0.009-0.243,0.009h-1.47
							v1.93h-1.28v-6.673h2.75c1.755,0,2.845,0.912,2.845,2.381c0,0.994-0.496,1.739-1.396,2.103L391.568,352.637z M390.209,352.586
							h1.264l-1.515-2.162l0.03-0.012c0.898-0.351,1.394-1.085,1.394-2.067c0-1.438-1.07-2.33-2.794-2.33h-2.699v6.571h1.179v-1.93
							h1.521c0.083,0,0.169,0,0.252-0.009l0.015-0.002l0.009,0.012L390.209,352.586z M388.53,349.695h-1.463v-2.69h1.463
							c1.071,0,1.662,0.477,1.662,1.341C390.192,349.215,389.601,349.695,388.53,349.695z M387.118,349.644h1.412
							c1.039,0,1.611-0.461,1.611-1.299c0-0.832-0.572-1.29-1.611-1.29h-1.412V349.644z"/>
					</g>
					<g>
						<path style="fill:#FAFAFA;" d="M392.783,345.99h1.229v6.622h-1.229V345.99z"/>
						<path style="fill:none;" d="M394.038,352.637h-1.28v-6.673h1.28V352.637z M392.808,352.586h1.179v-6.571h-1.179V352.586z"/>
					</g>
					<g>
						<path style="fill:#FAFAFA;" d="M401.686,350.814c0,1.136-0.889,1.798-2.592,1.798h-3.292v-6.622h3.102
							c1.59,0,2.441,0.672,2.441,1.722c0,0.681-0.341,1.183-0.852,1.457C401.204,349.395,401.686,349.953,401.686,350.814z
							 M397.032,346.954v1.826h1.74c0.852,0,1.334-0.303,1.334-0.908c0-0.615-0.482-0.918-1.334-0.918H397.032z M400.447,350.691
							c0-0.662-0.501-0.955-1.429-0.955h-1.986v1.911h1.986C399.946,351.647,400.447,351.354,400.447,350.691z"/>
						<path style="fill:none;" d="M399.094,352.637h-3.317v-6.673h3.128c1.544,0,2.467,0.653,2.467,1.747
							c0,0.635-0.289,1.147-0.815,1.451c0.735,0.257,1.155,0.855,1.155,1.651C401.712,351.99,400.782,352.637,399.094,352.637z
							 M395.828,352.586h3.267c1.655,0,2.566-0.629,2.566-1.772c0-0.792-0.428-1.383-1.174-1.622l-0.056-0.018l0.052-0.028
							c0.541-0.29,0.838-0.8,0.838-1.435c0-1.078-0.88-1.696-2.416-1.696h-3.077V352.586z M399.018,351.672h-2.012v-1.962h2.012
							c0.979,0,1.454,0.321,1.454,0.98C400.472,351.351,399.997,351.672,399.018,351.672z M397.057,351.621h1.961
							c0.944,0,1.403-0.304,1.403-0.931c0-0.626-0.459-0.93-1.403-0.93h-1.961V351.621z M398.772,348.806h-1.766v-1.877h1.766
							c0.889,0,1.359,0.326,1.359,0.943C400.132,348.483,399.661,348.806,398.772,348.806z M397.057,348.755h1.715
							c0.597,0,1.309-0.153,1.309-0.883c0-0.738-0.712-0.893-1.309-0.893h-1.715V348.755z"/>
					</g>
					<g>
						<path style="fill:#FAFAFA;" d="M407.973,351.58v1.031h-4.967v-6.622h4.834v1.031h-3.604v1.722h3.197v1.012h-3.197v1.826
							H407.973z"/>
						<path style="fill:none;" d="M407.999,352.637h-5.018v-6.673h4.885v1.082h-3.605v1.671h3.197v1.063h-3.197v1.775h3.737V352.637
							z M403.032,352.586h4.916v-0.98h-3.737v-1.877h3.197v-0.961h-3.197v-1.773h3.604v-0.98h-4.783V352.586z"/>
					</g>
				</g>
			</g>
			<g>
				<g>
					<path style="fill:#E8505B;" d="M428.342,239.368"/>
				</g>
			</g>
			<g>
				<g>
					<g>
						<path style="fill:#263238;" d="M454.348,312.546c0,0.144-32.141,0.26-71.78,0.26c-39.653,0-71.787-0.116-71.787-0.26
							c0-0.144,32.134-0.26,71.787-0.26C422.206,312.285,454.348,312.402,454.348,312.546z"/>
					</g>
				</g>
			</g>
			<g>
				<g>
					<g>
						<path style="fill:#263238;" d="M476.808,321.23c0,0.144-42.198,0.26-94.239,0.26c-52.06,0-94.249-0.117-94.249-0.26
							c0-0.144,42.189-0.26,94.249-0.26C434.61,320.97,476.808,321.086,476.808,321.23z"/>
					</g>
				</g>
			</g>
		</g>
		<g>
			<path style="fill:#E0E0E0;" d="M266.314,124.834c0,1.182-0.958,2.14-2.14,2.14c-1.182,0-2.139-0.958-2.139-2.14
				c0-1.182,0.958-2.14,2.139-2.14C265.356,122.694,266.314,123.652,266.314,124.834z"/>
		</g>
		<g>
			<circle style="fill:#E0E0E0;" cx="271.308" cy="124.834" r="2.14"/>
		</g>
		<g>
			<path style="fill:#E0E0E0;" d="M280.582,124.834c0,1.182-0.958,2.14-2.14,2.14c-1.182,0-2.139-0.958-2.139-2.14
				c0-1.182,0.958-2.14,2.139-2.14C279.624,122.694,280.582,123.652,280.582,124.834z"/>
		</g>
	</g>
</g>
<g id="Character">
	<g>
		<g>
			<path style="fill:#FFBE9D;" d="M488.361,169.65l4.155-14.987c0,0,1.499-6.089,1.856-7.512c0.472-1.882-0.848-2.474-1.626-1.194
				c-0.296,0.486-3.585,6.686-3.585,6.686s2.621-10.15,2.716-10.519c0.849-3.314-1.203-2.971-1.804-1.786
				c-0.621,1.224-4.333,11.213-4.333,11.213c3.486-13.053,2.396-14.202,1.415-14.408c-0.98-0.205-4.054,11.729-4.054,11.729
				s-1.105-2.04-3.151-3.446c-3.153-2.168-8.406-0.003-8.659,1.481c-0.253,1.484,1.623,1.9,1.623,1.9
				c3.949-2.545,7.999,0.538,7.585,4.306c-0.414,3.769-5.187,3.245-5.781,0.563c-1.305-5.885-3.33-3.973-3.33-3.973l2.029,12.982
				l-2.149,6.528"/>
		</g>
		<g>
			<g>
				<g>
					<polygon style="fill:#455A64;" points="338.663,230.741 428.513,230.141 430.982,291.229 337.946,290.312 					"/>
				</g>
			</g>
			<g>
				<g>
					<polyline style="fill:#263238;" points="338.663,230.741 384.3,193.857 428.513,230.141 					"/>
				</g>
			</g>
			<g>
				<g>
					<g>
						<path style="fill:#263238;" d="M337.946,290.312c-0.112-0.105,7.086-7.955,16.074-17.53
							c8.992-9.579,16.37-17.256,16.482-17.151c0.112,0.105-7.084,7.953-16.076,17.532
							C345.438,282.738,338.058,290.417,337.946,290.312z"/>
					</g>
				</g>
			</g>
			<g>
				<g>
					<g>
						<path style="fill:#263238;" d="M430.982,291.229c-0.115,0.102-7.116-7.597-15.634-17.194
							c-8.522-9.601-15.334-17.463-15.219-17.565c0.115-0.102,7.114,7.596,15.636,17.196
							C424.283,283.263,431.097,291.127,430.982,291.229z"/>
					</g>
				</g>
			</g>
			<g>
				<g>
					<polyline style="fill:#263238;" points="428.513,230.141 383.374,266.157 338.663,230.741 					"/>
				</g>
			</g>
		</g>
		<g>
			<g>
				<g>
					<g>
						<path style="fill:#FFBE9D;" d="M278.624,161.895l0.299-0.009l-1.205-4.02l-3.848-15.362c-0.365-1.394,0.411-2.83,1.807-3.347
							l2.77-0.094l9.488-4.438c1.793-0.663,3.775,0.463,3.999,2.295c0.346,2.824,2.266,10.409,4.31,7.752
							c0.048-0.062,0.099-0.113,0.147-0.174c2.872-3.954,6.449-6.087,7.921-6.027c1.436,0.058,1.966,1.798,1.005,2.837
							c-0.142,0.178-0.311,0.344-0.542,0.469c-0.096,0.052-0.209,0.145-0.311,0.21c-1.115,0.895-2.44,2.486-3.415,3.747
							c-0.929,1.203-1.635,2.567-2.091,3.999c-0.507,1.593-0.883,2.99-1.167,4.174l0.737,7.841"/>
					</g>
				</g>
				<g>
					<g>
						<g>
							<g>
								<path style="fill:#455A64;" d="M303.939,92.312c0,0-11.088-2.125-27.017-16.595c-15.928-14.471-23.776-34.065-25.671-33.914
									c-1.895,0.15-10.292-3.462-25.081,31.271c-14.789,34.733-8.354,42.519-5.22,42.366c3.135-0.154,24.263-6.692,37.608-5.558
									c13.345,1.135,30.64,7.582,30.64,7.582L303.939,92.312z"/>
							</g>
						</g>
						<g>
							<g>
								<path style="fill:#263238;" d="M327.877,110.337l-3.556,7.254l-1.593,3.25c-2.185,4.457-7.476,6.424-12.042,4.476
									l-23.85-7.559l12.863-31.79l23.952,11.905C328.248,100.157,330.137,105.726,327.877,110.337z"/>
							</g>
						</g>
						<g>
							<g>
								<path style="fill:#263238;" d="M314.585,122.166l-7.109,14.964l-3.793-0.939l-24.011,20.69l-7.25-13.252
									c0,0,14.347-6.669,16.887-11.924c2.539-5.255-0.598-6.342-0.598-6.342l6.616-7.962L314.585,122.166z"/>
							</g>
						</g>
						<g>
							<g>
								<path style="fill:#263238;" d="M227.462,73.662c-7.861,18.811-10.884,35.461-6.751,37.188
									c4.133,1.728,13.857-12.122,21.718-30.933c7.861-18.811,10.884-35.46,6.751-37.188
									C245.047,41.002,235.323,54.851,227.462,73.662z"/>
							</g>
						</g>
					</g>
					<g>
						<g>
							<polygon style="fill:#455A64;" points="330.197,120.606 323.738,118.777 327.486,111.133 332.371,113.981 							"/>
						</g>
					</g>
					<g>
						<g>
							<polygon style="fill:#455A64;" points="293.058,120.13 310.572,130.613 312.599,126.347 							"/>
						</g>
					</g>
					<g>
						<g>
							<polygon style="fill:#455A64;" points="327.486,111.133 323.738,118.777 325.065,119.154 328.071,111.474 							"/>
						</g>
					</g>
					<g>
						<g>
							<path style="fill:#455A64;" d="M323.125,112.996c-0.088,0.21-3.318-0.941-7.214-2.571c-3.899-1.63-6.985-3.121-6.897-3.33
								c0.087-0.209,3.316,0.942,7.214,2.571C320.124,111.296,323.212,112.786,323.125,112.996z"/>
						</g>
					</g>
					<g>
						<g>
							<path style="fill:#455A64;" d="M324.966,108.454c-0.095,0.207-3.02-0.929-6.534-2.538c-3.516-1.609-6.287-3.08-6.192-3.287
								c0.094-0.206,3.019,0.93,6.534,2.539C322.288,106.777,325.06,108.248,324.966,108.454z"/>
						</g>
					</g>
					<g>
						<g>
							<path style="fill:#455A64;" d="M320.775,117.771c-0.031,0.11-0.796-0.044-2.02-0.384c-0.611-0.17-1.336-0.386-2.138-0.639
								c-0.797-0.264-1.628-0.655-2.517-1.028c-3.548-1.526-6.267-3.042-6.185-3.233c0.097-0.226,2.992,0.965,6.507,2.476
								c0.881,0.369,1.701,0.781,2.471,1.077c0.773,0.287,1.466,0.556,2.046,0.794C320.097,117.311,320.805,117.662,320.775,117.771
								z"/>
						</g>
					</g>
					<g>
						<g>
							<path style="fill:#455A64;" d="M244.446,69.046c0,0-9.745-5.667-14.618,7.421c-4.872,13.088,5.264,14.929,5.264,14.929
								C239.034,84.885,242.176,77.462,244.446,69.046z"/>
						</g>
					</g>
					<g>
						<g>
							<path style="fill:#263238;" d="M254.194,53.337c0.056,0.008-0.055,0.89-0.305,2.483c-0.258,1.59-0.621,3.897-1.156,6.732
								c-0.365,1.399-0.765,2.927-1.193,4.566c-0.217,0.821-0.442,1.669-0.673,2.543c-0.116,0.437-0.234,0.881-0.354,1.33
								c-0.13,0.446-0.305,0.885-0.459,1.336c-0.639,1.8-1.31,3.688-2.005,5.644c-0.175,0.489-0.351,0.982-0.529,1.48
								c-0.172,0.5-0.422,0.972-0.632,1.465c-0.441,0.978-0.888,1.971-1.34,2.975c-0.454,1.004-0.902,1.996-1.345,2.975
								c-0.231,0.484-0.42,0.984-0.68,1.445c-0.256,0.462-0.509,0.922-0.76,1.377c-1.007,1.816-1.979,3.569-2.906,5.239
								c-0.237,0.414-0.451,0.835-0.699,1.228c-0.258,0.388-0.513,0.77-0.764,1.147c-0.503,0.753-0.991,1.484-1.464,2.191
								c-0.946,1.406-1.829,2.719-2.637,3.92c-1.768,2.271-3.254,4.065-4.275,5.31c-1.027,1.24-1.616,1.909-1.661,1.873
								c-0.045-0.035,0.459-0.77,1.408-2.07c0.985-1.325,2.368-3.185,4.067-5.469c0.776-1.21,1.624-2.531,2.533-3.947
								c0.457-0.708,0.93-1.44,1.416-2.193c0.244-0.376,0.491-0.758,0.742-1.145c0.241-0.393,0.449-0.815,0.679-1.229
								c0.907-1.667,1.858-3.415,2.844-5.228c0.247-0.453,0.497-0.91,0.748-1.37c0.257-0.458,0.443-0.955,0.671-1.437
								c0.438-0.972,0.882-1.958,1.331-2.955c0.451-0.997,0.896-1.982,1.335-2.953c0.21-0.489,0.46-0.958,0.633-1.453
								c0.178-0.493,0.356-0.982,0.531-1.467c0.706-1.938,1.387-3.807,2.036-5.59c0.158-0.447,0.336-0.881,0.472-1.322
								c0.124-0.445,0.247-0.883,0.368-1.316c0.243-0.864,0.479-1.704,0.708-2.516c0.461-1.62,0.89-3.132,1.284-4.515
								c0.587-2.779,1.065-5.042,1.406-6.654C253.92,54.195,254.138,53.329,254.194,53.337z"/>
						</g>
					</g>
				</g>
			</g>
			<g>
				<path style="fill:#E8505B;" d="M422.617,220.264"/>
			</g>
		</g>
		<g>
			<g>
				<g>
					<path style="fill:#E8505B;" d="M347.591,207.81"/>
				</g>
			</g>
			<g>
				<g>
					<path style="fill:#E8505B;" d="M311.777,196.273l-9.915-37.673l-24.778,0.656l7.707,52.57
						c0.985,11.44,7.716,18.929,19.053,20.746c6.797,1.089,14.162-5.39,19.621-9.583c3.564-2.738,4.198-2.195,7.875-5.538l0,0
						l15.961-11.538l0.391,1.894l-0.102,0.004l2.712,32.122l33.057,25.957l39.431-31.592l-0.9-13.665
						c0.097-0.011,0.194-0.201-0.013-0.197l-1.021-15.485l20.199,23.171c4.65,6.789,12.565,10.586,20.77,9.964
						c8.871-0.672,16.564-6.388,19.769-14.687l10.408-52.957l-22.839-4.915l-10.697,38.161l-25.52-29.328
						c-14.715-19.174-31.897-17.553-31.897-17.553l-31.675-0.562c-0.024-0.001-0.047,0-0.071,0.001
						c-0.94,0.05-18.642,0.585-30.64,13.406L311.777,196.273z"/>
				</g>
			</g>
			<g>
				<g>
					<g>
						<path style="fill:#FAFAFA;" d="M434.234,176.448c-0.015,0.031-0.343-0.161-1.019-0.373c-0.671-0.217-1.714-0.42-3.056-0.316
							c-1.338,0.109-2.949,0.538-4.686,1.344c-1.752,0.777-3.563,2.015-5.674,3.229c-2.092,1.177-4.606,2.468-7.569,2.4
							c-1.464-0.049-2.934-0.454-4.357-1.014c-1.427-0.558-2.832-1.252-4.31-1.837c-2.929-1.197-6.358-1.598-9.736-0.924
							c-3.401,0.649-6.518,2.557-9.71,4.409c-1.608,0.922-3.229,1.808-4.932,2.467c-1.7,0.664-3.466,1.086-5.222,1.27
							c-3.513,0.376-6.987-0.145-9.985-1.385c-3.013-1.226-5.539-3.014-7.851-4.675c-2.311-1.673-4.437-3.265-6.524-4.473
							c-2.089-1.201-4.133-2.009-5.988-2.468c-1.86-0.443-3.523-0.538-4.86-0.404c-2.695,0.293-3.981,1.227-4.008,1.137
							c-0.004-0.008,0.076-0.057,0.236-0.145c0.162-0.086,0.4-0.222,0.724-0.376c0.66-0.274,1.663-0.655,3.026-0.817
							c1.357-0.167,3.053-0.101,4.949,0.323c1.892,0.44,3.975,1.235,6.104,2.432c2.127,1.204,4.275,2.787,6.593,4.442
							c2.318,1.643,4.829,3.396,7.779,4.581c2.932,1.199,6.323,1.697,9.75,1.323c1.713-0.183,3.433-0.597,5.089-1.245
							c1.661-0.645,3.26-1.518,4.861-2.436c3.176-1.84,6.352-3.791,9.87-4.458c3.478-0.689,7.015-0.261,10.012,0.978
							c2.973,1.214,5.674,2.777,8.504,2.866c2.819,0.087,5.286-1.138,7.374-2.289c2.103-1.181,3.946-2.409,5.736-3.174
							c1.772-0.791,3.422-1.201,4.791-1.28c1.373-0.076,2.434,0.165,3.104,0.418C433.925,176.223,434.234,176.448,434.234,176.448z"
							/>
					</g>
				</g>
			</g>
			<g>
				<g>
					<g>
						<path style="fill:#FAFAFA;" d="M452.603,195.214c0,0-0.093,0.515-0.541,1.394c-0.45,0.868-1.323,2.09-2.869,3.167
							c-1.522,1.085-3.714,2.002-6.368,2.255c-2.652,0.299-5.679-0.019-8.971-0.395c-3.268-0.332-6.989-0.736-10.677,0.479
							c-1.826,0.617-3.556,1.656-5.295,2.784c-1.743,1.121-3.525,2.36-5.573,3.239c-4.057,1.786-8.87,2.458-13.63,1.594
							c-2.381-0.404-4.731-1.247-6.923-2.427c-2.196-1.179-4.243-2.642-6.364-4.013c-2.12-1.359-4.283-2.637-6.62-3.325
							c-2.327-0.698-4.769-0.777-7.107-0.443c-4.699,0.683-8.964,2.573-13.217,3.724c-2.12,0.602-4.259,1.023-6.368,1.067
							c-2.098,0.035-4.176-0.256-6.012-1.015c-3.691-1.521-6.405-4.114-8.822-6.359c-2.407-2.284-4.627-4.315-6.881-5.665
							c-2.23-1.384-4.463-1.997-6.293-2.146c-1.842-0.15-3.271,0.18-4.181,0.504c-0.912,0.339-1.344,0.628-1.361,0.597
							c0,0,0.412-0.32,1.324-0.695c0.909-0.36,2.356-0.73,4.232-0.608c1.862,0.12,4.148,0.717,6.428,2.099
							c2.301,1.346,4.562,3.381,6.983,5.646c2.428,2.227,5.136,4.77,8.731,6.227c1.785,0.728,3.795,1,5.84,0.959
							c2.054-0.05,4.154-0.469,6.252-1.072c2.104-0.592,4.226-1.335,6.418-2.044c2.19-0.704,4.46-1.393,6.858-1.723
							c2.386-0.346,4.919-0.27,7.327,0.452c2.416,0.71,4.619,2.016,6.754,3.384c2.133,1.38,4.17,2.835,6.326,3.994
							c2.15,1.158,4.436,1.981,6.768,2.381c4.656,0.853,9.373,0.205,13.347-1.531c3.978-1.737,7.105-4.752,10.923-5.993
							c1.887-0.629,3.814-0.809,5.636-0.809c1.828,0.003,3.568,0.184,5.219,0.374c3.294,0.4,6.286,0.739,8.9,0.471
							c2.616-0.223,4.767-1.092,6.282-2.132c1.535-1.031,2.418-2.21,2.892-3.05C452.442,195.707,452.57,195.201,452.603,195.214z"/>
					</g>
				</g>
			</g>
			<g>
				<g>
					<g>
						<path style="fill:#FAFAFA;" d="M481.497,220.67c-0.044,0.041-0.392-0.541-1.384-1.134c-0.972-0.587-2.672-1.064-4.697-0.701
							c-2.032,0.354-4.177,1.675-6.326,3.379c-1.088,0.843-2.217,1.77-3.495,2.6c-1.271,0.824-2.717,1.57-4.338,1.87
							c-1.616,0.32-3.236,0.172-4.725-0.129c-1.494-0.309-2.883-0.773-4.192-1.221c-1.31-0.448-2.541-0.894-3.717-1.202
							c-1.178-0.305-2.299-0.494-3.329-0.564c-2.061-0.146-3.736,0.236-4.76,0.762c-1.036,0.51-1.496,0.987-1.534,0.94
							c-0.012-0.013,0.1-0.13,0.328-0.341c0.11-0.111,0.259-0.232,0.448-0.36c0.182-0.139,0.401-0.284,0.666-0.419
							c1.025-0.598,2.754-1.053,4.872-0.949c1.058,0.048,2.208,0.219,3.414,0.513c1.208,0.297,2.456,0.732,3.765,1.166
							c2.591,0.843,5.571,1.868,8.664,1.294c1.528-0.281,2.914-0.987,4.159-1.787c1.251-0.804,2.376-1.713,3.479-2.552
							c2.178-1.694,4.416-3.038,6.557-3.362c2.126-0.332,3.887,0.228,4.866,0.892c0.505,0.322,0.813,0.677,1.019,0.907
							C481.423,220.524,481.511,220.66,481.497,220.67z"/>
					</g>
				</g>
			</g>
			<g>
				<g>
					<g>
						<path style="fill:#FAFAFA;" d="M486.519,191.931c0.013,0.02-0.266,0.257-0.86,0.539c-0.59,0.284-1.512,0.577-2.686,0.679
							c-1.173,0.1-2.584-0.009-4.09-0.368c-1.51-0.355-3.092-0.962-4.738-1.578c-1.646-0.615-3.227-1.158-4.708-1.406
							c-1.48-0.251-2.849-0.226-3.96-0.015c-2.257,0.422-3.299,1.546-3.355,1.447c-0.016-0.016,0.208-0.307,0.738-0.697
							c0.527-0.39,1.39-0.842,2.541-1.111c1.149-0.268,2.574-0.333,4.111-0.099c1.542,0.232,3.16,0.774,4.813,1.392
							c1.653,0.618,3.21,1.23,4.671,1.6c1.46,0.374,2.818,0.516,3.952,0.466C485.242,192.688,486.481,191.829,486.519,191.931z"/>
					</g>
				</g>
			</g>
			<g>
				<g>
					<g>
						<path style="fill:#FAFAFA;" d="M420.212,229.728c-0.031,0.055-0.877-0.562-2.617-1.199c-1.734-0.617-4.424-1.152-7.721-0.798
							c-3.304,0.289-7.079,1.588-11.026,3.501c-3.967,1.868-8.169,4.37-13.056,5.953c-2.436,0.785-4.929,1.268-7.361,1.271
							c-2.434-0.008-4.752-0.498-6.858-1.181c-2.114-0.678-4.04-1.526-5.831-2.319c-1.793-0.791-3.449-1.553-4.994-2.16
							c-3.074-1.261-5.717-1.834-7.562-1.974c-0.462-0.026-0.873-0.066-1.229-0.075c-0.343,0.011-0.643,0.021-0.903,0.029
							c-0.489,0.012-0.748,0.01-0.75-0.007c-0.002-0.018,0.253-0.051,0.743-0.097c0.262-0.023,0.563-0.049,0.908-0.079
							c0.36-0.008,0.775,0.016,1.244,0.027c1.87,0.079,4.569,0.607,7.682,1.833c1.565,0.589,3.234,1.335,5.033,2.107
							c1.796,0.775,3.717,1.602,5.804,2.257c2.082,0.661,4.345,1.127,6.711,1.128c2.367-0.009,4.805-0.484,7.204-1.257
							c4.812-1.557,9.008-4.034,13.01-5.891c3.979-1.899,7.833-3.187,11.197-3.434c3.357-0.314,6.089,0.289,7.826,0.974
							C419.411,229.046,420.212,229.728,420.212,229.728z"/>
					</g>
				</g>
			</g>
			<g>
				<g>
					<g>
						<path style="fill:#FAFAFA;" d="M283.638,204.173c0,0,0.14-0.126,0.476-0.227c0.331-0.1,0.874-0.143,1.512,0.061
							c0.634,0.2,1.359,0.635,1.971,1.365c0.607,0.728,1.071,1.697,1.585,2.723c0.504,1.033,1.21,2.065,2.212,2.944
							c0.994,0.885,2.28,1.56,3.7,2.045c2.872,0.96,6.27,1.018,9.738,0.466c3.477-0.508,6.807-1.215,9.913-1.192
							c3.112-0.049,5.884,0.887,7.841,2.175c1.996,1.271,3.119,2.933,3.574,4.154c0.461,1.235,0.418,1.976,0.418,1.976
							c-0.066,0.012-0.099-0.723-0.605-1.898c-0.501-1.164-1.625-2.728-3.585-3.921c-1.929-1.21-4.608-2.078-7.642-2.005
							c-3.038,0.002-6.333,0.714-9.841,1.228c-3.495,0.557-7.011,0.492-9.965-0.527c-1.466-0.515-2.801-1.233-3.832-2.176
							c-1.037-0.932-1.769-2.049-2.256-3.104c-0.499-1.05-0.927-1.997-1.483-2.705c-0.551-0.7-1.223-1.139-1.809-1.355
							C284.342,203.755,283.638,204.247,283.638,204.173z"/>
					</g>
				</g>
			</g>
			<g>
				<g>
					<g>
						<path style="fill:#FAFAFA;" d="M305.33,173.622c-0.063,0.098-1.11-1.163-3.487-1.811c-1.172-0.318-2.638-0.464-4.236-0.278
							c-1.599,0.181-3.312,0.717-5.034,1.451c-1.725,0.74-3.314,1.584-4.788,2.309c-1.471,0.73-2.833,1.333-4.014,1.742
							c-1.181,0.409-2.172,0.634-2.864,0.733c-0.692,0.101-1.079,0.096-1.083,0.067c-0.014-0.09,1.526-0.24,3.819-1.146
							c1.146-0.447,2.472-1.076,3.925-1.825c1.455-0.745,3.045-1.607,4.799-2.36c1.753-0.747,3.52-1.286,5.187-1.449
							c1.664-0.166,3.185,0.024,4.39,0.402c1.208,0.382,2.093,0.929,2.632,1.378C305.121,173.286,305.347,173.607,305.33,173.622z"
							/>
					</g>
				</g>
			</g>
			<g style="opacity:0.3;">
				<g>
					<g>
						<path d="M377.738,261.474c12.835-7.444,27.696-16.172,35.106-29.027c4.739-8.221,7.093-18.053,8.013-27.498l1.934,29.347
							l-39.431,31.592L377.738,261.474z"/>
					</g>
				</g>
			</g>
			<g style="opacity:0.2;">
				<g>
					<g>
						<path d="M344.465,164.384c-3.028,11.26-8.833,20.963-17.629,28.617c-2.123,1.848-4.429,3.571-7.092,4.482
							c-2.663,0.911-5.75,0.918-8.158-0.538l0.192-0.672l19.983-19.788L344.465,164.384z"/>
					</g>
				</g>
			</g>
			<g>
				<g>
					<g>
						<path style="fill:#263238;" d="M314.321,212.013c-0.085-0.032,0.241-0.909,0.51-2.373c0.273-1.461,0.413-3.532,0.049-5.77
							c-0.374-2.237-1.172-4.154-1.9-5.449c-0.725-1.3-1.316-2.026-1.246-2.083c0.038-0.036,0.736,0.61,1.563,1.895
							c0.828,1.277,1.711,3.241,2.097,5.552c0.377,2.312,0.171,4.455-0.202,5.931C314.821,211.199,314.369,212.035,314.321,212.013z
							"/>
					</g>
				</g>
			</g>
			<g>
				<g>
					<g>
						<path style="fill:#263238;" d="M308.595,206.972c-0.133-0.1,1.606-1.923,2.383-4.818c0.823-2.884,0.269-5.341,0.434-5.358
							c0.059-0.015,0.282,0.573,0.399,1.578c0.119,1,0.081,2.423-0.331,3.919c-0.416,1.494-1.115,2.734-1.731,3.531
							C309.131,206.626,308.638,207.015,308.595,206.972z"/>
					</g>
				</g>
			</g>
			<g>
				<g>
					<g>
						<path style="fill:#263238;" d="M345.796,186.297c0.143-0.013,0.964,7.959,1.833,17.803c0.869,9.847,1.458,17.838,1.315,17.851
							c-0.143,0.013-0.964-7.957-1.833-17.805C346.241,194.302,345.653,186.309,345.796,186.297z"/>
					</g>
				</g>
			</g>
			<g>
				<g>
					<g>
						<path style="fill:#263238;" d="M399.184,155.659c0.017-0.006,0.09,0.179,0.215,0.539c0.14,0.355,0.283,0.898,0.436,1.607
							c0.291,1.414,0.439,3.554-0.095,6.108c-0.561,2.522-1.862,5.488-4.361,7.906c-2.463,2.443-6.204,4.011-10.193,4.109
							c-3.991,0.078-7.798-1.326-10.366-3.66c-2.604-2.307-4.033-5.213-4.703-7.708c-0.646-2.528-0.591-4.672-0.362-6.097
							c0.121-0.715,0.24-1.263,0.365-1.624c0.109-0.365,0.174-0.553,0.191-0.547c0.063,0.016-0.195,0.776-0.355,2.197
							c-0.165,1.414-0.16,3.516,0.516,5.974c0.7,2.427,2.13,5.235,4.664,7.445c2.495,2.233,6.172,3.573,10.038,3.5
							c3.865-0.096,7.479-1.595,9.873-3.935c2.435-2.318,3.741-5.185,4.334-7.641c0.568-2.485,0.481-4.586,0.255-5.991
							C399.413,156.427,399.122,155.678,399.184,155.659z"/>
					</g>
				</g>
			</g>
			<g>
				<g>
					<g>
						<path style="fill:#263238;" d="M457.278,215.904c-0.137,0.007-0.366-2.807-0.165-6.276c0.193-3.471,0.739-6.24,0.875-6.217
							c0.149,0.022-0.163,2.805-0.355,6.247C457.434,213.098,457.429,215.899,457.278,215.904z"/>
					</g>
				</g>
			</g>
			<g>
				<g>
					<g>
						<path style="fill:#263238;" d="M461.294,217.722c-0.064,0.023-0.411-0.749-0.854-2.041c-0.444-1.291-0.969-3.107-1.392-5.149
							c-0.421-2.043-0.66-3.919-0.764-5.28c-0.105-1.362-0.093-2.208-0.025-2.212c0.156-0.012,0.454,3.339,1.299,7.387
							C460.386,214.476,461.441,217.671,461.294,217.722z"/>
					</g>
				</g>
			</g>
			<g>
				<g>
					<g>
						<path style="fill:#263238;" d="M420.856,218.296c-0.144,0.005-0.472-5.629-0.733-12.582
							c-0.261-6.956-0.356-12.598-0.212-12.603c0.144-0.005,0.472,5.627,0.733,12.584
							C420.904,212.648,420.999,218.29,420.856,218.296z"/>
					</g>
				</g>
			</g>
		</g>
		<g>
			<g>
				<g>
					<g>
						<g>
							<g>
								<g>
									<g>
										<g>
											<g>
												<path style="fill:#FFBE9D;" d="M385.012,174.358L385.012,174.358c-7.496-0.14-13.586-6.094-13.9-13.585
													c-0.23-5.48-0.418-10.512-0.418-10.512s-11.47-1.218-12.162-12.593c-0.692-11.375,0.013-37.607,0.013-37.607l0,0
													c12.901-6.301,28.202-5.127,39.991,3.069l1.75,1.217l-0.832,56.046C399.337,168.244,392.862,174.505,385.012,174.358z"
													/>
											</g>
										</g>
									</g>
								</g>
							</g>
							<g>
								<g>
									<g>
										<g>
											<g>
												<path style="fill:#EB996E;" d="M370.668,150.098c0,0,7.222,0.236,14.634-4.936c0,0-3.11,8.361-14.518,7.887
													L370.668,150.098z"/>
											</g>
										</g>
									</g>
								</g>
							</g>
						</g>
					</g>
				</g>
				<g>
					<g>
						<g>
							<g>
								<g>
									<g>
										<path style="fill:#FFBE9D;" d="M399.455,116.204c0.19-0.093,7.708-2.692,7.837,5.101c0.129,7.793-7.722,6.315-7.74,6.092
											C399.535,127.174,399.455,116.204,399.455,116.204z"/>
									</g>
								</g>
							</g>
						</g>
					</g>
					<g>
						<g>
							<g>
								<g>
									<g>
										<g>
											<path style="fill:#EB996E;" d="M401.884,124.406c0.034-0.026,0.138,0.093,0.368,0.194
												c0.225,0.099,0.611,0.163,1.015,0.004c0.818-0.316,1.49-1.634,1.505-3.04c0.008-0.71-0.152-1.383-0.412-1.938
												c-0.247-0.566-0.623-0.958-1.038-1.025c-0.414-0.089-0.703,0.164-0.795,0.385c-0.101,0.22-0.049,0.374-0.09,0.388
												c-0.021,0.02-0.169-0.128-0.112-0.451c0.03-0.155,0.118-0.341,0.298-0.493c0.185-0.155,0.458-0.237,0.748-0.211
												c0.602,0.032,1.152,0.576,1.438,1.185c0.319,0.612,0.516,1.368,0.507,2.165c-0.024,1.571-0.804,3.054-1.925,3.398
												c-0.546,0.152-1.006-0.006-1.245-0.186C401.902,124.594,401.858,124.42,401.884,124.406z"/>
										</g>
									</g>
								</g>
							</g>
						</g>
					</g>
				</g>
				<g>
					<g>
						<g>
							<g>
								<g>
									<g>
										<g>
											<g>
												<g>
													<g>
														<g>
															<path style="fill:#263238;" d="M363.988,117.273c-0.03,0.859,0.672,1.594,1.569,1.642
																c0.895,0.048,1.647-0.608,1.678-1.467c0.03-0.859-0.672-1.595-1.568-1.643
																C364.77,115.756,364.018,116.413,363.988,117.273z"/>
														</g>
													</g>
												</g>
											</g>
										</g>
										<g>
											<g>
												<g>
													<g>
														<g>
															<g>
																<path style="fill:#263238;" d="M362.008,115.643c0.202,0.212,1.435-0.7,3.186-0.696
																	c1.749-0.02,3.035,0.88,3.225,0.666c0.093-0.095-0.112-0.478-0.672-0.885c-0.551-0.406-1.49-0.8-2.581-0.795
																	c-1.091,0.006-2.008,0.407-2.536,0.818C362.091,115.164,361.909,115.548,362.008,115.643z"/>
															</g>
														</g>
													</g>
												</g>
											</g>
										</g>
									</g>
									<g>
										<g>
											<g>
												<g>
													<g>
														<g>
															<path style="fill:#263238;" d="M380.802,117.473c-0.03,0.859,0.672,1.593,1.569,1.642
																c0.895,0.048,1.647-0.608,1.678-1.467c0.03-0.859-0.673-1.595-1.568-1.643
																C381.584,115.956,380.832,116.613,380.802,117.473z"/>
														</g>
													</g>
												</g>
											</g>
										</g>
										<g>
											<g>
												<g>
													<g>
														<g>
															<g>
																<path style="fill:#263238;" d="M379.221,115.97c0.202,0.212,1.437-0.7,3.186-0.695
																	c1.749-0.02,3.034,0.881,3.224,0.666c0.093-0.095-0.11-0.478-0.672-0.885c-0.551-0.406-1.49-0.8-2.581-0.796
																	c-1.091,0.006-2.008,0.408-2.536,0.819C379.306,115.491,379.123,115.875,379.221,115.97z"/>
															</g>
														</g>
													</g>
												</g>
											</g>
										</g>
									</g>
									<g>
										<g>
											<g>
												<g>
													<g>
														<g>
															<path style="fill:#263238;" d="M372.866,128.956c0.008-0.1-1.08-0.287-2.844-0.513
																c-0.447-0.046-0.87-0.135-0.946-0.44c-0.105-0.323,0.082-0.805,0.299-1.325c0.42-1.082,0.86-2.216,1.322-3.405
																c1.836-4.848,3.166-8.834,2.97-8.906c-0.196-0.072-1.843,3.799-3.68,8.647c-0.442,1.196-0.865,2.335-1.267,3.425
																c-0.169,0.508-0.46,1.084-0.232,1.755c0.12,0.334,0.449,0.577,0.735,0.654c0.287,0.088,0.538,0.092,0.759,0.106
																C371.758,129.048,372.86,129.056,372.866,128.956z"/>
														</g>
													</g>
												</g>
											</g>
										</g>
									</g>
									<g>
										<g>
											<g>
												<g>
													<g>
														<g>
															<path style="fill:#263238;" d="M378.02,130.168c-0.285-0.016-0.289,1.884-1.915,3.233
																c-1.624,1.354-3.65,1.14-3.665,1.406c-0.026,0.119,0.451,0.369,1.306,0.392c0.839,0.029,2.064-0.241,3.06-1.066
																c0.992-0.827,1.419-1.931,1.484-2.711C378.362,130.628,378.15,130.157,378.02,130.168z"/>
														</g>
													</g>
												</g>
											</g>
										</g>
									</g>
								</g>
							</g>
						</g>
						<g>
							<g>
								<g>
									<g>
										<g>
											<path style="fill:#263238;" d="M378.77,109.107c0.173,0.476,1.921,0.25,3.976,0.498c2.06,0.206,3.716,0.808,3.989,0.381
												c0.122-0.204-0.167-0.652-0.837-1.113c-0.664-0.46-1.723-0.898-2.957-1.035c-1.233-0.135-2.363,0.061-3.111,0.365
												C379.075,108.507,378.695,108.881,378.77,109.107z"/>
										</g>
									</g>
								</g>
							</g>
						</g>
						<g>
							<g>
								<g>
									<g>
										<g>
											<path style="fill:#263238;" d="M362.652,110.575c0.308,0.398,1.514-0.015,2.965-0.034c1.45-0.07,2.679,0.267,2.962-0.149
												c0.124-0.202-0.069-0.6-0.606-0.977c-0.529-0.375-1.413-0.682-2.41-0.652c-0.997,0.032-1.861,0.392-2.365,0.799
												C362.685,109.971,362.516,110.381,362.652,110.575z"/>
										</g>
									</g>
								</g>
							</g>
						</g>
					</g>
				</g>
			</g>
			<g>
				<g>
					<g>
						<path style="fill:#263238;" d="M352.732,92.543c-0.122-1.412,0.404-2.928,1.553-3.758c1.15-0.83,2.932-0.777,3.866,0.289
							c-0.535-1.903,1.021-4.097,2.993-4.223c1.858-0.118,3.443,1.286,5.239,1.778c1.753,0.481,3.634,0.065,5.321-0.614
							c1.686-0.679,3.262-1.616,4.97-2.24c3.561-1.301,7.633-1.137,11.079,0.445c3.446,1.582,6.224,4.563,7.559,8.112
							c2.492-0.779,5.324,0.486,6.861,2.597c1.537,2.111,1.931,4.883,1.625,7.476c-0.207,1.752-0.713,3.445-1.303,5.113
							c0.001,0.146,0.015,0.29,0.012,0.437c-0.118,6.266-0.826,13.625-3.5,13.666c-4.659,0.071-3.549-8.707-3.549-8.707
							c-5.718-2.209-3.588-10.777-5.018-12.076c-1.43-1.3-4.421-4.32-16.393,1.799c-4.649,2.376-10.83,2.302-14.204,1.536
							c-0.099-0.021-0.199-0.036-0.298-0.061c-0.021-0.005-0.048-0.009-0.069-0.014c-0.037-0.009-0.063-0.03-0.099-0.04
							c-1.076-0.28-2.113-0.697-3.07-1.303c-1.084-0.686-2.071-1.615-2.53-2.813c-0.46-1.198-0.287-2.694,0.653-3.567
							C353.546,95.267,352.854,93.955,352.732,92.543z"/>
					</g>
				</g>
			</g>
		</g>
	</g>
</g>
</svg>
